# Blender v2.79 (sub 0) OBJ File: 'Insert[Name]HereStripLight.blend'
# www.blender.org
mtllib Insert[Name]HereStripLight.mtl
o Cube_Cube.001
v -0.337018 0.818231 2.003681
v -0.337018 0.818231 -2.003681
v 0.337018 0.818231 2.003681
v 0.337018 0.818231 -2.003681
v 0.337018 0.632290 -2.003681
v -0.337018 0.632290 -2.003681
v -0.337018 0.632290 2.003681
v 0.337018 0.632290 2.003681
v -0.337018 0.632290 -1.831051
v -0.337018 0.632290 1.831051
v 0.337018 0.632290 -1.831051
v 0.337018 0.632290 1.831051
v -0.291123 0.818231 -1.912962
v -0.337018 0.864126 -1.912962
v -0.337018 0.818231 -1.958857
v -0.337018 0.772336 -1.912962
v -0.337018 0.864126 1.912962
v -0.291123 0.818231 1.912962
v -0.337018 0.772336 1.912962
v -0.337018 0.818231 1.958857
v 0.291123 0.818231 1.912962
v 0.337018 0.864126 1.912962
v 0.337018 0.818231 1.958857
v 0.337018 0.772336 1.912962
v 0.337018 0.864126 -1.912962
v 0.291123 0.818231 -1.912962
v 0.337018 0.772336 -1.912962
v 0.337018 0.818231 -1.958857
v -0.248612 1.000000 2.003681
v -0.337018 0.911594 2.003681
v -0.337018 0.911594 -2.003681
v -0.248612 1.000000 -2.003681
v 0.337018 0.911594 2.003681
v 0.248612 1.000000 2.003681
v 0.248612 1.000000 -2.003681
v 0.337018 0.911594 -2.003681
v -0.248612 1.000000 1.912962
v -0.337018 0.911594 1.912962
v -0.337018 0.911594 -1.912962
v -0.248612 1.000000 -1.824556
v -0.248612 1.000000 -2.001368
v 0.248612 1.000000 -2.001368
v 0.248612 1.000000 -1.824556
v 0.337018 0.911594 -1.912962
v 0.337018 0.911594 1.912962
v 0.248612 1.000000 1.912962
v -0.337018 0.632290 1.912962
v -0.237880 0.601818 1.912962
v -0.337018 0.632290 2.003681
v -0.237880 0.601818 2.003681
v 0.337018 0.632290 -2.003681
v 0.237880 0.601818 -2.003681
v -0.237880 0.601818 -2.003681
v -0.337018 0.632290 -2.003681
v 0.337018 0.632290 -1.912962
v 0.237880 0.601818 -1.912962
v 0.237880 0.601818 2.003681
v 0.337018 0.632290 2.003681
v -0.237880 0.601818 -1.912962
v -0.337018 0.632290 -1.912962
v 0.237880 0.601818 1.912962
v 0.337018 0.632290 1.912962
v 0.237880 0.601818 -1.831051
v 0.337018 0.632290 -1.831051
v -0.337018 0.632290 -1.831051
v -0.237880 0.601818 -1.831051
v 0.337018 0.632290 1.831051
v 0.237880 0.601818 1.831051
v -0.237880 0.601818 1.831051
v -0.337018 0.632290 1.831051
v -0.337018 0.632290 -1.891439
v -0.337018 0.653813 -1.912962
v -0.337018 0.632290 -1.934486
v -0.337018 0.632290 -1.912962
v 0.337018 0.653813 -1.912962
v 0.337018 0.632290 -1.891439
v 0.337018 0.632290 -1.912962
v 0.337018 0.632290 -1.934486
v -0.337018 0.653813 1.912962
v -0.337018 0.632290 1.891439
v -0.337018 0.632290 1.912962
v -0.337018 0.632290 1.934486
v 0.337018 0.632290 1.891439
v 0.337018 0.653813 1.912962
v 0.337018 0.632290 1.934486
v 0.337018 0.632290 1.912962
vn 0.0000 1.0000 0.0000
vn 0.0000 0.0000 1.0000
vn -1.0000 0.0000 0.0000
vn 1.0000 0.0000 0.0000
vn 0.0000 0.0000 -1.0000
vn 0.0000 -1.0000 0.0000
vn -0.7071 0.0000 0.7071
vn -0.7071 0.0000 -0.7071
vn 0.7071 0.0000 -0.7071
vn 0.7071 0.0000 0.7071
vn -0.7071 -0.7071 0.0000
vn 0.7071 -0.7071 0.0000
vn -0.7071 0.7071 0.0000
vn 0.7071 0.7071 0.0000
vn -0.2938 -0.9559 0.0000
vn 0.2938 -0.9559 0.0000
vn 0.0000 0.7071 0.7071
vn 0.0000 0.7071 -0.7071
usemtl None
s off
f 76//1 71//1 9//1 11//1
f 35//1 32//1 41//1 42//1
f 55//2 77//2 76//2 11//2 64//2
f 46//1 37//1 29//1 34//1
f 8//2 7//2 49//2 50//2 57//2 58//2
f 15//3 14//3 39//3 31//3 2//3
f 23//4 22//4 45//4 33//4 3//4
f 25//4 44//4 45//4 22//4
f 5//2 78//2 77//2 55//2 51//2
f 2//5 31//5 32//5 35//5 36//5 4//5
f 4//4 36//4 44//4 25//4 28//4
f 7//2 82//2 81//2 47//2 49//2
f 13//6 26//6 21//6 18//6
f 19//5 18//5 21//5 24//5 84//5 79//5
f 4//4 28//4 27//4 75//4 78//4 5//4
f 27//2 26//2 13//2 16//2 72//2 75//2
f 74//2 73//2 6//2 54//2 60//2
f 11//2 9//2 65//2 66//2 63//2 64//2
f 59//6 56//6 63//6 66//6
f 6//5 5//5 51//5 52//5 53//5 54//5
f 53//6 52//6 56//6 59//6
f 2//5 4//5 5//5 6//5
f 43//1 40//1 37//1 46//1
f 17//3 38//3 39//3 14//3
f 47//2 81//2 80//2 10//2 70//2
f 3//2 1//2 7//2 8//2
f 83//2 86//2 62//2 67//2 12//2
f 3//2 33//2 34//2 29//2 30//2 1//2
f 10//5 12//5 67//5 68//5 69//5 70//5
f 61//6 48//6 69//6 68//6
f 24//4 23//4 3//4 8//4 85//4 84//4
f 80//1 83//1 12//1 10//1
f 1//3 20//3 19//3 79//3 82//3 7//3
f 86//2 85//2 8//2 58//2 62//2
f 13//7 14//7 15//7 16//7
f 17//8 18//8 19//8 20//8
f 21//9 22//9 23//9 24//9
f 25//10 26//10 27//10 28//10
f 13//11 18//11 17//11 14//11
f 21//12 26//12 25//12 22//12
f 71//2 74//2 60//2 65//2 9//2
f 39//13 40//13 41//13
f 42//14 43//14 44//14
f 41//13 32//13 31//13 39//13
f 46//14 34//14 33//14 45//14
f 29//13 37//13 38//13 30//13
f 37//13 40//13 39//13 38//13
f 35//14 42//14 44//14 36//14
f 43//14 46//14 45//14 44//14
f 40//1 43//1 42//1 41//1
f 1//3 30//3 38//3 17//3 20//3
f 48//15 50//15 49//15 47//15
f 56//16 52//16 51//16 55//16
f 53//15 59//15 60//15 54//15
f 57//16 61//16 62//16 58//16
f 61//16 68//16 67//16 62//16
f 69//15 48//15 47//15 70//15
f 59//15 66//15 65//15 60//15
f 63//16 56//16 55//16 64//16
f 48//6 61//6 57//6 50//6
f 71//3 72//3 73//3 74//3
f 75//4 76//4 77//4 78//4
f 79//3 80//3 81//3 82//3
f 83//4 84//4 85//4 86//4
f 71//17 76//17 75//17 72//17
f 83//18 80//18 79//18 84//18
f 16//3 15//3 2//3 6//3 73//3 72//3
o Cylinder
v 0.192873 0.812671 -1.886850
v 0.192873 0.812671 1.894783
v 0.225910 0.806099 -1.886850
v 0.225910 0.806099 1.894783
v 0.253917 0.787386 -1.886850
v 0.253917 0.787386 1.894783
v 0.272631 0.759379 -1.886850
v 0.272631 0.759379 1.894783
v 0.279202 0.726342 -1.886850
v 0.279202 0.726342 1.894783
v 0.272631 0.693305 -1.886850
v 0.272631 0.693305 1.894783
v 0.253917 0.665298 -1.886850
v 0.253917 0.665298 1.894783
v 0.225910 0.646585 -1.886850
v 0.225910 0.646585 1.894783
v 0.192874 0.640013 -1.886850
v 0.192874 0.640013 1.894783
v 0.159837 0.646585 -1.886850
v 0.159837 0.646585 1.894783
v 0.131830 0.665298 -1.886850
v 0.131830 0.665298 1.894783
v 0.113116 0.693305 -1.886850
v 0.113116 0.693305 1.894783
v 0.106545 0.726342 -1.886850
v 0.106545 0.726342 1.894783
v 0.113116 0.759379 -1.886850
v 0.113116 0.759379 1.894783
v 0.131830 0.787386 -1.886850
v 0.131830 0.787386 1.894783
v 0.159837 0.806099 -1.886850
v 0.159837 0.806099 1.894783
v -0.000600 0.815580 -1.886850
v -0.000600 0.815580 1.894783
v 0.032437 0.809009 -1.886850
v 0.032437 0.809009 1.894783
v 0.060444 0.790295 -1.886850
v 0.060444 0.790295 1.894783
v 0.079157 0.762288 -1.886850
v 0.079157 0.762288 1.894783
v 0.085729 0.729251 -1.886850
v 0.085729 0.729251 1.894783
v 0.079157 0.696215 -1.886850
v 0.079157 0.696215 1.894783
v 0.060444 0.668208 -1.886850
v 0.060444 0.668208 1.894783
v 0.032437 0.649494 -1.886850
v 0.032437 0.649494 1.894783
v -0.000600 0.642923 -1.886850
v -0.000600 0.642923 1.894783
v -0.033637 0.649494 -1.886850
v -0.033637 0.649494 1.894783
v -0.061644 0.668208 -1.886850
v -0.061644 0.668208 1.894783
v -0.080358 0.696215 -1.886850
v -0.080358 0.696215 1.894783
v -0.086929 0.729251 -1.886850
v -0.086929 0.729251 1.894783
v -0.080358 0.762288 -1.886850
v -0.080358 0.762288 1.894783
v -0.061644 0.790295 -1.886850
v -0.061644 0.790295 1.894783
v -0.033637 0.809009 -1.886850
v -0.033637 0.809009 1.894783
v -0.189710 0.817035 -1.886850
v -0.189710 0.817035 1.894783
v -0.156673 0.810463 -1.886850
v -0.156673 0.810464 1.894783
v -0.128666 0.791750 -1.886850
v -0.128666 0.791750 1.894783
v -0.109952 0.763743 -1.886850
v -0.109952 0.763743 1.894783
v -0.103381 0.730706 -1.886850
v -0.103381 0.730706 1.894783
v -0.109952 0.697669 -1.886850
v -0.109952 0.697669 1.894783
v -0.128666 0.669662 -1.886850
v -0.128666 0.669662 1.894783
v -0.156673 0.650949 -1.886850
v -0.156673 0.650949 1.894783
v -0.189710 0.644377 -1.886850
v -0.189710 0.644377 1.894783
v -0.222746 0.650949 -1.886850
v -0.222746 0.650949 1.894783
v -0.250753 0.669662 -1.886850
v -0.250753 0.669662 1.894783
v -0.269467 0.697669 -1.886850
v -0.269467 0.697669 1.894783
v -0.276039 0.730706 -1.886850
v -0.276039 0.730706 1.894783
v -0.269467 0.763743 -1.886850
v -0.269467 0.763743 1.894783
v -0.250753 0.791750 -1.886850
v -0.250753 0.791750 1.894783
v -0.222746 0.810464 -1.886850
v -0.222746 0.810464 1.894783
vn 0.1951 0.9808 -0.0000
vn 0.5556 0.8315 0.0000
vn 0.8315 0.5556 0.0000
vn 0.9808 0.1951 0.0000
vn 0.9808 -0.1951 0.0000
vn 0.8315 -0.5556 0.0000
vn 0.5556 -0.8315 0.0000
vn 0.1951 -0.9808 0.0000
vn -0.1951 -0.9808 0.0000
vn -0.5556 -0.8315 0.0000
vn -0.8315 -0.5556 0.0000
vn -0.9808 -0.1951 0.0000
vn -0.9808 0.1951 0.0000
vn -0.8315 0.5556 0.0000
vn 0.0000 -0.0000 1.0000
vn -0.5556 0.8315 0.0000
vn -0.1951 0.9808 0.0000
vn 0.0000 0.0000 -1.0000
usemtl None
s off
f 87//19 88//19 90//19 89//19
f 89//20 90//20 92//20 91//20
f 91//21 92//21 94//21 93//21
f 93//22 94//22 96//22 95//22
f 95//23 96//23 98//23 97//23
f 97//24 98//24 100//24 99//24
f 99//25 100//25 102//25 101//25
f 101//26 102//26 104//26 103//26
f 103//27 104//27 106//27 105//27
f 105//28 106//28 108//28 107//28
f 107//29 108//29 110//29 109//29
f 109//30 110//30 112//30 111//30
f 111//31 112//31 114//31 113//31
f 113//32 114//32 116//32 115//32
f 90//33 88//33 118//33 116//33 114//33 112//33 110//33 108//33 106//33 104//33 102//33 100//33 98//33 96//33 94//33 92//33
f 115//34 116//34 118//34 117//34
f 117//35 118//35 88//35 87//35
f 87//36 89//36 91//36 93//36 95//36 97//36 99//36 101//36 103//36 105//36 107//36 109//36 111//36 113//36 115//36 117//36
f 119//19 120//19 122//19 121//19
f 121//20 122//20 124//20 123//20
f 123//21 124//21 126//21 125//21
f 125//22 126//22 128//22 127//22
f 127//23 128//23 130//23 129//23
f 129//24 130//24 132//24 131//24
f 131//25 132//25 134//25 133//25
f 133//26 134//26 136//26 135//26
f 135//27 136//27 138//27 137//27
f 137//28 138//28 140//28 139//28
f 139//29 140//29 142//29 141//29
f 141//30 142//30 144//30 143//30
f 143//31 144//31 146//31 145//31
f 145//32 146//32 148//32 147//32
f 122//33 120//33 150//33 148//33 146//33 144//33 142//33 140//33 138//33 136//33 134//33 132//33 130//33 128//33 126//33 124//33
f 147//34 148//34 150//34 149//34
f 149//35 150//35 120//35 119//35
f 119//36 121//36 123//36 125//36 127//36 129//36 131//36 133//36 135//36 137//36 139//36 141//36 143//36 145//36 147//36 149//36
f 151//19 152//19 154//19 153//19
f 153//20 154//20 156//20 155//20
f 155//21 156//21 158//21 157//21
f 157//22 158//22 160//22 159//22
f 159//23 160//23 162//23 161//23
f 161//24 162//24 164//24 163//24
f 163//25 164//25 166//25 165//25
f 165//26 166//26 168//26 167//26
f 167//27 168//27 170//27 169//27
f 169//28 170//28 172//28 171//28
f 171//29 172//29 174//29 173//29
f 173//30 174//30 176//30 175//30
f 175//31 176//31 178//31 177//31
f 177//32 178//32 180//32 179//32
f 154//33 152//33 182//33 180//33 178//33 176//33 174//33 172//33 170//33 168//33 166//33 164//33 162//33 160//33 158//33 156//33
f 179//34 180//34 182//34 181//34
f 181//35 182//35 152//35 151//35
f 151//36 153//36 155//36 157//36 159//36 161//36 163//36 165//36 167//36 169//36 171//36 173//36 175//36 177//36 179//36 181//36
