# Blender v2.76 (sub 0) OBJ File: 'BlackBelts Game Door.blend'
# www.blender.org
mtllib DoorH_3.mtl
o Cube.005_Cube.007
v 0.732635 -0.997967 0.879456
v 0.732635 0.930513 0.879456
v 0.732635 -0.997967 -0.310711
v 0.732635 0.930513 -0.310711
v 0.885154 -0.997967 0.879456
v 0.885154 0.930513 0.879456
v 0.885154 -0.997967 -0.310711
v 0.885154 0.930513 -0.310711
vn -1.000000 0.000000 0.000000
vn 0.000000 0.000000 -1.000000
vn 1.000000 0.000000 0.000000
vn 0.000000 0.000000 1.000000
vn 0.000000 -1.000000 0.000000
vn 0.000000 1.000000 0.000000
usemtl Material.008
s off
f 1//1 2//1 4//1 3//1
f 3//2 4//2 8//2 7//2
f 7//3 8//3 6//3 5//3
f 5//4 6//4 2//4 1//4
f 3//5 7//5 5//5 1//5
f 8//6 4//6 2//6 6//6
