# Blender v2.76 (sub 0) OBJ File: 'BlackBelts Game Door.blend'
# www.blender.org
mtllib DoorF.mtl
o Cube.004_Cube.003
v 0.689901 -1.000000 1.000000
v 0.689901 1.000000 1.000000
v 0.689901 -1.000000 0.888259
v 0.689901 1.000000 0.888259
v 0.990000 -1.000000 1.000000
v 0.990000 1.000000 1.000000
v 0.990000 -1.000000 0.888259
v 0.990000 1.000000 0.888259
v 0.689901 0.927184 1.000000
v 0.689901 0.927184 0.888259
v 0.990000 0.927184 0.888259
v 0.990000 0.927184 1.000000
v 0.689901 1.000000 -0.400322
v 0.990000 1.000000 -0.400322
v 0.689901 0.927184 -0.400322
v 0.990000 0.927184 -0.400322
v 0.689901 1.000000 -0.293748
v 0.689901 0.927184 -0.293748
v 0.990000 0.927184 -0.293748
v 0.990000 1.000000 -0.293748
v 0.689901 -0.995999 -0.400322
v 0.990000 -0.995999 -0.400322
v 0.689901 -0.995999 -0.293748
v 0.990000 -0.995999 -0.293748
vn -1.000000 0.000000 0.000000
vn 1.000000 0.000000 0.000000
vn 0.000000 0.000000 1.000000
vn 0.000000 -1.000000 0.000000
vn 0.000000 1.000000 0.000000
vn 0.000000 0.000000 -1.000000
usemtl Material.007
s off
f 9//1 2//1 4//1 10//1
f 18//1 17//1 13//1 15//1
f 11//2 8//2 6//2 12//2
f 12//3 6//3 2//3 9//3
f 3//4 7//4 5//4 1//4
f 8//5 4//5 2//5 6//5
f 5//3 12//3 9//3 1//3
f 7//2 11//2 12//2 5//2
f 3//6 10//6 11//6 7//6
f 1//1 9//1 10//1 3//1
f 15//6 13//6 14//6 16//6
f 18//1 15//1 21//1 23//1
f 17//5 20//5 14//5 13//5
f 20//2 19//2 16//2 14//2
f 8//2 11//2 19//2 20//2
f 4//5 8//5 20//5 17//5
f 11//4 10//4 18//4 19//4
f 10//1 4//1 17//1 18//1
f 24//4 23//4 21//4 22//4
f 15//6 16//6 22//6 21//6
f 19//3 18//3 23//3 24//3
f 16//2 19//2 24//2 22//2
