# Blender v2.76 (sub 0) OBJ File: 'BlackBelts Game Door.blend'
# www.blender.org
mtllib DoorH_1.mtl
o Cube.004_Cube.000
v 0.686685 -1.000455 0.884534
v 0.686685 0.929768 0.893154
v 0.686685 -0.998054 0.346767
v 0.686685 0.932169 0.355386
v 0.983358 -1.000455 0.884534
v 0.983358 0.929768 0.893154
v 0.983358 -0.998054 0.346767
v 0.983358 0.932169 0.355386
v 0.686685 -0.001395 0.888996
v 0.686685 0.001006 0.351228
v 0.983358 0.001006 0.351228
v 0.983358 -0.001395 0.888996
v 0.686685 -0.197111 0.238924
v 0.686685 -0.997557 0.235350
v 0.983358 -0.997557 0.235350
v 0.983358 -0.197111 0.238924
vn -1.000000 0.000000 0.000000
vn 0.000000 0.004500 -1.000000
vn 1.000000 0.000000 0.000000
vn 0.000000 -0.004500 1.000000
vn 0.000000 -1.000000 -0.004500
vn 0.000000 1.000000 0.004500
vn 0.000000 0.493100 -0.869900
usemtl Material.005
s off
f 9//1 2//1 4//1 10//1
f 10//2 4//2 8//2 11//2
f 11//3 8//3 6//3 12//3
f 12//4 6//4 2//4 9//4
f 3//5 7//5 5//5 1//5
f 8//6 4//6 2//6 6//6
f 5//4 12//4 9//4 1//4
f 7//3 11//3 12//3 5//3
f 11//3 7//3 15//3 16//3
f 1//1 9//1 10//1 3//1
f 14//2 13//2 16//2 15//2
f 7//5 3//5 14//5 15//5
f 10//7 11//7 16//7 13//7
f 3//1 10//1 13//1 14//1
